<?xml version="1.0" encoding="utf-8"?>
<!-- Generator: Adobe Illustrator 22.0.1, SVG Export Plug-In . SVG Version: 6.00 Build 0)  -->
<svg version="1.1" id="Capa_1" xmlns="http://www.w3.org/2000/svg" xmlns:xlink="http://www.w3.org/1999/xlink" x="0px" y="0px"
	 viewBox="0 0 508 47" style="enable-background:new 0 0 508 47;" xml:space="preserve">
<style type="text/css">
	.st0{fill:#010202;}
</style>
<g>
	<path class="st0" d="M81.1,37.1h-4.6v3.3l-1.7,1.7l-1.7-1.7l0,0v-3.2h3.3v-6.8c0-0.3-0.2-0.5-0.5-0.5c-0.1,0-0.2,0.1-0.3,0.1
		l-2.5,2.4V37h-6.7c-0.3,0-0.5,0.2-0.4,0.5c0,0.1,0.1,0.2,0.1,0.3l2.4,2.5h4.6l-4.8,4.9c-0.2,0.2-0.2,0.5,0,0.7
		c0.1,0.1,0.2,0.1,0.3,0.1h3.5l2.6-2.7l2.6,2.7h3.5c0.3,0,0.5-0.2,0.4-0.5c0-0.1-0.1-0.2-0.1-0.3l-4.8-4.9H83c0.3,0,0.5-0.2,0.4-0.5
		c0-0.1-0.1-0.2-0.1-0.3L81.1,37.1z"/>
	<path class="st0" d="M99.5,37.1h-4.6v3.3l-1.7,1.7l-1.7-1.7l0,0v-3.2h3.3v-6.8c0-0.3-0.2-0.5-0.5-0.5c-0.1,0-0.2,0.1-0.3,0.1
		l-2.5,2.4V37h-6.7c-0.3,0-0.5,0.2-0.4,0.5c0,0.1,0.1,0.2,0.1,0.3l2.4,2.5h4.6l-4.8,4.9c-0.2,0.2-0.2,0.5,0,0.7
		C86.9,46,87,46,87.1,46h3.5l2.6-2.7l2.6,2.7h3.5c0.3,0,0.5-0.2,0.5-0.5c0-0.1,0-0.2-0.1-0.3L95,40.3h6.7c0.3,0,0.5-0.2,0.5-0.5
		c0-0.1-0.1-0.2-0.1-0.3L99.5,37.1z"/>
	<path class="st0" d="M117.9,37.1h-4.6v3.3l-1.7,1.7l-1.7-1.7l0,0v-3.2h3.3v-6.8c0-0.3-0.2-0.5-0.5-0.5c-0.1,0-0.2,0.1-0.3,0.1
		l-2.5,2.4V37h-6.8c-0.3,0-0.5,0.2-0.5,0.5c0,0.1,0.1,0.2,0.1,0.3l2.4,2.5h4.6l-4.8,4.9c-0.2,0.2-0.2,0.5,0,0.7
		c0.1,0.1,0.2,0.1,0.3,0.1h3.5l2.6-2.7l2.6,2.7h3.5c0.3,0,0.5-0.2,0.4-0.5c0-0.1-0.1-0.2-0.1-0.3l-4.8-4.9h6.6
		c0.3,0,0.5-0.2,0.4-0.5c0-0.1-0.1-0.2-0.1-0.3L117.9,37.1z"/>
	<path class="st0" d="M138.7,39.6l-2.4-2.5h-4.6v3.3l-1.7,1.7l-1.7-1.7l0,0v-3.2h3.3v-6.8c0-0.3-0.2-0.5-0.5-0.5
		c-0.1,0-0.2,0.1-0.3,0.1l-2.5,2.4V37h-6.7c-0.3,0-0.5,0.2-0.4,0.5c0,0.1,0.1,0.2,0.1,0.3l2.4,2.5h4.6l-4.8,4.9
		c-0.2,0.2-0.2,0.5,0,0.7c0.1,0.1,0.2,0.1,0.3,0.1h3.5l2.6-2.7l2.6,2.7h3.5c0.3,0,0.5-0.2,0.5-0.5c0-0.1,0-0.2-0.1-0.3l-4.7-4.8h6.7
		c0.3,0,0.4-0.3,0.4-0.5S138.8,39.6,138.7,39.6z"/>
	<path class="st0" d="M100.5,33.7c1.4,1.4,3.5,1.4,4.9,0l0,0L112,27c1.4-1.4,1.5-3.5,0.3-5l2.1-2.1c2.2-2.2,1.9-6-0.8-8.6
		c-2.3-2.3-5.8-2.8-8-1.3l-2.6,2.6l-0.8-0.2c-1.4-0.8-3-0.5-4.1,0.6l-6.6,6.5c-1.4,1.4-1.4,3.6,0,5l0,0L100.5,33.7z M107.4,13.1
		c0.8-0.9,2.6-0.6,3.9,0.8s1.6,3.1,0.8,3.9l-2.1,2.1l-4.7-4.7L107.4,13.1z M93.9,22l6.6-6.6c0.1-0.1,0.2-0.1,0.3,0l9,9
		c0.1,0.1,0.1,0.2,0,0.3l-6.6,6.6c-0.1,0.1-0.2,0.1-0.3,0l-9-9C93.8,22.2,93.8,22.1,93.9,22z"/>
	<rect x="100.2" y="21.6" transform="matrix(0.7071 -0.7071 0.7071 0.7071 13.3934 78.853)" class="st0" width="3.4" height="3.3"/>
</g>
<g>
	<path d="M168.3,44.5c-2.2,0.1-4.1-1.5-4.2-3.8c-0.1-1.1,0.3-2.1,1-2.9l0,0l0.3-0.3c1.4-1.3,3.6-1.4,5.1-0.3l3.3,0.1
		c-0.4-0.7-0.8-1.2-1.3-1.6c-1.3-1.2-3-1.7-4.7-1.6l-0.4,0.1c-1.5,0.2-3,1-4,2.1l0,0c-2.3,2.7-2.1,6.7,0.6,9.2l0,0
		c2.7,2.4,6.8,2.1,9.2-0.6l0,0c0.3-0.3,0.5-0.6,0.7-0.9l-3.3-0.1C169.8,44.3,169.1,44.5,168.3,44.5z"/>
	<path d="M168.3,37.9L168.3,37.9c-1.4,0-2.6,1.2-2.6,2.6c0,1.4,1.2,2.6,2.6,2.6l0,0c0.6,0,1.2-0.2,1.6-0.6h4.7l0.4-1.3h-4
		c0.1-0.2,0.1-0.5,0.1-0.7s0-0.3,0-0.5h4.3l0.4-1.3h-5.4C169.7,38.2,169,37.9,168.3,37.9z M169.3,41.4c-0.2,0.2-0.6,0.4-0.9,0.4l0,0
		c-0.7,0-1.3-0.6-1.3-1.3s0.6-1.3,1.3-1.3l0,0l0,0c0.7,0,1.3,0.6,1.3,1.3C169.6,40.8,169.5,41.2,169.3,41.4z"/>
	<path d="M177.6,33L177.6,33L177.6,33z"/>
	<path d="M178.4,11.4c0.3,0.3,0.7,0.5,1.2,0.6l5.1,1.5c0.3,0.1,0.6,0.1,0.9,0.1c0.7,0,1.4-0.4,1.9-1.8l0,0v-1.3
		c0-0.1-0.1-0.2-0.2-0.2c0,0-0.1,0-0.1,0.1l-1.1,1.1l-0.5-0.2l-5.2-1.5c-0.2-0.1-0.4-0.3-0.4-0.5V8.4c-0.1-2,1.5-3.7,3.5-3.7
		c0.6,0,1.3,0.1,1.7,0.4l1.7,1l0.4,0.1l-1.7,1.6v1.4c0,0.1,0.1,0.2,0.2,0.2c0,0,0.1,0,0.1-0.1l2.9-2.9c0.5-0.4,0.9-1.1,0.7-1.5
		c-0.1-0.3-0.3-0.5-0.5-0.6l-2.5-1.4c-2.9-1.6-6.6-0.7-8.3,2.2c-0.6,1-0.9,2-0.8,3.2V9C177.3,10,177.7,10.8,178.4,11.4z"/>
	<path d="M192.2,25.2h-2.7l-2,2.1l1.8,1.8l3.3-3.3c0.1-0.1,0.1-0.4,0-0.5C192.4,25.2,192.3,25.2,192.2,25.2z"/>
	<path d="M191.7,30c0,0.1,0.1,0.2,0.2,0.2s0.1,0,0.1-0.1l3.2-3.3l-0.9-0.9l-2.6,2.6V30L191.7,30z"/>
	<path d="M201.8,34.1L201.8,34.1c-0.4,0-0.8,0-1.1,0.1l2.1,2.5c2.1,0.6,3.5,2.7,2.9,4.9c-0.5,1.8-2.1,3.1-4,3.1h-0.4
		c-1.9-0.2-3.5-1.7-3.6-3.7l-2.1-2.6c-0.3,0.7-0.4,1.3-0.4,2.1c0,1.7,0.7,3.4,1.9,4.6l0.3,0.3c1.2,1.1,2.7,1.5,4.2,1.5h0.1
		c3.6,0,6.5-2.9,6.5-6.5l0,0C208.2,37,205.3,34.1,201.8,34.1z"/>
	<path d="M185.2,28.2L185.2,28.2l-2.3,0.8c0,0.1,0,0.1,0.1,0.2c0.5,0.6,0.7,1.4,0.5,2.2l-0.7,2.6l0,0l-1.8,6.9
		c-0.2,0.5-0.7,0.4-1,0.4h-0.2c-0.2,0-0.4-0.1-0.5-0.2c-0.1-0.1-0.2-0.3-0.1-0.5l1.8-7.8c0.2-1.1-0.1-2.2-1-3
		c-0.3-0.3-0.7-0.6-1-0.9l-2-1.4c-1-0.7-1-0.6-1-0.9l0.3-1.8l2.6-7.4c0-0.2,0.1-0.3,0.2-0.4c0.1-0.1,0.3-0.2,0.4-0.1l2.3,0.4
		c0,0,0.1,0,0.1,0.1l0.4,0.3l6.2,6.5c0.1,0.1,0.4,0.1,0.5,0s0.1-0.2,0.1-0.3V21l-5.7-6l0,0c-0.2-0.1-0.4-0.2-0.7-0.3l-2.8-0.4
		c-0.9-0.2-1.8,0.1-2.5,0.7c-0.7,0.6-0.9,1.3-1.2,2.4l-2.5,7.6l0,0l-8.4-0.6c-0.7,0-1.3,0.6-1.3,1.3c0,0.4,0.2,0.7,0.4,1l9.7,9.1
		l0.4,0.4l0.2,0.2l0.6-3.1l-6.7-6.3l4.6,0.5c0.2,0.8,0.8,1.4,1.4,1.8l0,0c0.2,0.1,0.3,0.2,0.5,0.3l2.7,1.7c0.2,0.1,0.4,0.3,0.4,0.6
		l0,0V32l-0.1,0.3l-1.5,7.1l0,0l-0.1,0.3c-0.2,1,0,1.9,0.7,2.7l0.4,0.3c0.7,0.5,1.4,0.9,2.3,0.9l0,0c0.7,0,1.3-0.2,1.8-0.6
		c0.6-0.4,1-0.9,1.2-1.5l2.8-9.5C186.4,30.8,186.2,29.4,185.2,28.2z"/>
	<path d="M199.5,38.8l-2.2-2.5c-0.3,0.3-0.6,0.7-0.9,1.1l2.5,2.8c0,0.7,0.2,1.3,0.7,1.9l0,0c1,1.1,2.6,1.2,3.7,0.2
		c1.1-1,1.2-2.6,0.2-3.7c-0.4-0.5-1-0.8-1.5-0.9l-2.6-3c-0.4,0.2-0.9,0.4-1.3,0.7l2.2,2.5c-0.2,0.1-0.4,0.2-0.6,0.4
		C199.8,38.5,199.7,38.7,199.5,38.8z M200.7,39.5c0.5-0.5,1.3-0.4,1.7,0.1c0.2,0.3,0.4,0.6,0.3,0.9c0,0.3-0.2,0.7-0.4,0.9
		c-0.5,0.5-1.3,0.4-1.7-0.1C200.2,40.6,200.2,39.9,200.7,39.5z"/>
	<path d="M199.3,33.3c1-0.4,2-0.7,3.1-0.9c0.7-0.1,1-0.7,1.2-1.3c0.3-1-0.2-1.9-1-2.9l0,0l-0.1-0.1c-0.1-0.1-0.2-0.2-0.3-0.3
		l-8.6-8.9h-2.7c-0.2,0-0.4,0.2-0.4,0.4c0,0.1,0,0.2,0.1,0.2l10,10.4V30c-2.1,0.5-4,1.4-5.8,2.7l-0.1,0.1c-2.7,2.7-3.9,5.8-3.4,9.2
		h-5.8l-0.8,2.6h8.2c0.4,0,0.8-0.2,1.1-0.5s0.3-0.8,0.2-1.2c-0.7-2-0.4-4.2,0.7-6.2C195.9,35.2,197.4,33.9,199.3,33.3z"/>
</g>
<g>
	<rect x="249.5" y="41.5" width="1.4" height="1.4"/>
	<rect x="242.6" y="10.2" width="1.4" height="1.4"/>
	<rect x="248.2" y="10.2" width="4.2" height="1.4"/>
	<path d="M263.1,12.9H240V9h22.8c0.2,0,0.4-0.2,0.4-0.4c0-0.1,0-0.2-0.1-0.3L260.9,6h-23.7v32.8l0,0v1.3h23.1V44h-22.8
		c-0.2,0-0.4,0.2-0.4,0.4c0,0.1,0,0.2,0.1,0.3l2.2,2.2h23.7V14.3l0,0V12.9z M260.2,38.8h-20.1L240,14.3h20.2V38.8z"/>
	<path d="M253.3,27.5l-3.1,3.1l-3.1-3.1c-0.1-0.1-0.2-0.1-0.2,0l-0.1,0.1v1.5l2.4,2.4c0.5,0.5,1.4,0.5,1.9,0l0,0l2.4-2.4v-1.5
		c0-0.1-0.1-0.2-0.2-0.2C253.4,27.5,253.4,27.5,253.3,27.5z"/>
	<polygon points="246.9,22 250.2,21.2 252.8,21.8 250.3,25 249.2,23.4 248.2,24.1 250.2,27.3 253.6,22.8 253.6,26.7 255,26.7 
		255,20.9 250.2,19.8 245.5,20.9 245.5,26.7 246.9,26.7 	"/>
</g>
<g>
	<path d="M5.6,16.6L5.6,16.6v3.8c-0.1,4.9,3.7,8.9,8.7,9c0.1,0,0.3,0,0.4,0c4.9,0.1,8.9-3.7,9-8.6c0-0.1,0-0.3,0-0.4v-3.8l0,0V16
		l0,0v-1l2.7-3.4l-1-0.6c-0.7-0.5-7.4-5-10.6-5s-10,4.4-10.7,5l-1,0.6l2.8,3.5L5.6,16.6z M21.4,20.5c0.1,3.6-2.8,6.6-6.4,6.7
		c-0.1,0-0.2,0-0.3,0c-3.6,0.1-6.6-2.7-6.8-6.3c0-0.1,0-0.3,0-0.4v-2.1c4.1,2.5,9.4,2.5,13.5,0V20.5z M14.6,18
		c-2.5,0-4.9-0.8-6.7-2.4v-0.8h13.5v0.7C19.4,17.2,17,18,14.6,18z M14.6,8.1c1.8,0,5.7,2.2,8.5,3.8l-1.3,1.9H7.5l-1.4-1.9
		C8.9,10.2,12.9,8.1,14.6,8.1L14.6,8.1z"/>
	<path d="M12.9,12.5h1.7l0,0l1.8-1.8c0,0,0.1-0.1,0.1-0.2s-0.1-0.2-0.2-0.2l0,0h-1.7l0,0l-1.8,1.8c0,0-0.1,0.1-0.1,0.2
		S12.8,12.5,12.9,12.5z"/>
	<path d="M6.6,33.1H5.4L5,33.5l0,0l-1.2,1.2l0,0l-0.5,0.5L3,35.5l0,0l-0.6,0.6c-0.1,0.1-0.1,0.2,0,0.2h0.1h1.2l0.1-0.1l0,0l1.5-1.5
		l0,0l1.4-1.4c0.1-0.1,0.1-0.1,0-0.2C6.7,33.1,6.6,33.1,6.6,33.1z"/>
	<rect x="31.3" y="27" width="3.9" height="1.1"/>
	<rect x="26.2" y="27" width="3.9" height="1.1"/>
	<path d="M36.6,46.4c0,0.4,0.3,0.6,0.6,0.6h3.1c0.4,0,0.6-0.3,0.6-0.6v-1.5h-4.4v1.5H36.6z"/>
	<path d="M38.3,39c0-0.7-0.6-1.3-1.3-1.3s-1.3,0.6-1.3,1.3s0.6,1.3,1.3,1.3C37.8,40.4,38.3,39.8,38.3,39z"/>
	<path d="M21,46.4c0,0.4,0.3,0.6,0.6,0.6h3.1c0.4,0,0.6-0.3,0.6-0.6v-1.5h-4.4L21,46.4L21,46.4z"/>
	<path d="M43.5,41.3H18.4c-0.2,0-0.3,0.1-0.3,0.3c0,0.1,0,0.1,0.1,0.2l1.7,1.7H42l1.7-1.7c0.1-0.1,0.1-0.3,0-0.4
		C43.6,41.3,43.5,41.3,43.5,41.3z"/>
	<path d="M26.1,39c0-0.7-0.6-1.3-1.3-1.3c-0.7,0-1.3,0.6-1.3,1.3s0.6,1.3,1.3,1.3l0,0C25.5,40.4,26.1,39.8,26.1,39z"/>
	<path d="M43.5,37.5l-2-2.4c-0.2-0.3-0.5-0.4-0.8-0.4h-0.4l-2.7-5c-0.2-0.3-0.5-0.6-0.9-0.6H25.2c-0.1,0-0.3,0-0.4,0.1l-0.4-0.4
		c-0.4-0.4-1.1-0.4-1.5,0c-4.8,4-11.7,4-16.4,0c-0.4-0.4-1.1-0.4-1.5,0l-4,4l0,0l-1,0.9V36c0,0.1,0,0.2,0.1,0.2
		c0.1,0.1,0.4,0.1,0.5,0L1.8,35l0,0l3.7-3.7c2.3,1.7,5,2.7,7.8,2.9v2.3h2.3v-2.3c2.8-0.2,5.5-1.2,7.7-2.9l-1.9,3.4H21
		c-0.3,0-0.6,0.1-0.8,0.4l-2,2.4c-0.1,0.2-0.2,0.4-0.2,0.7v2.2h2.3v-1.8l1.3-1.5h18.5l1.3,1.5v1.8h2.3v-2.2
		C43.7,37.9,43.7,37.7,43.5,37.5z M24.3,34.8L24.3,34.8l1.5-3.3H36l1.4,3.3h0.1H24.3z"/>
</g>
<g>
	<path d="M388.9,25.9h-2.8v8.3h-0.5l-1.4-3.9c-0.3-0.8-1.1-1.2-1.9-0.9c-0.4,0.1-0.7,0.5-0.9,0.9l-2.2,6.1l-1.8-3.1
		c-0.2-0.4-0.7-0.7-1.1-0.7c-0.5-0.1-0.9,0.1-1.2,0.5l-1,1.1h-2.6l-1.4-3.9c-0.3-0.8-1.1-1.2-1.9-0.9c-0.4,0.1-0.7,0.5-0.9,0.9
		l-2.2,6.1l-1.8-3.1c-0.2-0.4-0.6-0.7-1.1-0.7c-0.5-0.1-0.9,0.1-1.2,0.5l-1,1.1h-0.7V23h29.2c0.3,0,0.5-0.2,0.5-0.5
		c0-0.1,0-0.2-0.1-0.3l-2-2h-30.3v14h-4.2V37h4.2v4.3h2.8V37h1.4c0.4,0,0.8-0.2,1.1-0.5l0.1-0.1l2.3,4.1c0.3,0.5,0.7,0.7,1.3,0.7
		h0.1c0.6,0,1.1-0.4,1.3-1l1.9-5.3l0.4,1.1c0.2,0.6,0.8,1,1.4,1h4.3c0.4,0,0.8-0.2,1.1-0.5l0.1-0.1l2.3,4.1c0.3,0.5,0.7,0.7,1.3,0.7
		h0.1c0.6,0,1.1-0.4,1.3-1l1.9-5.3l0.4,1.1c0.2,0.6,0.8,1,1.4,1h1.5v7.1h-29.2c-0.3,0-0.5,0.2-0.5,0.5l0,0c0,0.1,0.1,0.2,0.1,0.3
		l2,2h30.3V37h3v-2.8h-3v-8.3C389.1,25.9,388.9,25.9,388.9,25.9z"/>
	<path d="M388.9,16H387c-0.2,0-0.4,0.2-0.4,0.4c0,0.1,0,0.2,0.1,0.3l2.2,2.1l0,0c1.6,0,2.8,1.3,2.8,2.9l0,0l2.1,2.2
		c0.1,0.2,0.4,0.2,0.5,0c0.1-0.1,0.1-0.2,0.1-0.3v-1.9l0,0C394.5,18.5,392,16,388.9,16z"/>
	<path d="M388.8,10.5H387c-0.2,0-0.4,0.2-0.4,0.4c0,0.1,0,0.2,0.1,0.3l2.1,2.1l0,0c4.6,0,8.4,3.7,8.4,8.4l0,0l0,0l2.1,2.2
		c0.1,0.2,0.4,0.2,0.5,0c0.1-0.1,0.1-0.2,0.1-0.3v-1.8l0,0C400,15.5,395,10.5,388.8,10.5z"/>
	<rect x="378.9" y="25.8" width="2.8" height="1.5"/>
</g>
<g>
	<path d="M325.9,17.1l-2-0.7v7.5h-3.3v-7.5l-2,0.7c-1.9,0.7-3.5,1.9-4.6,3.5l-1.1-4.8c-0.1-0.6-0.7-1-1.3-1.1l-7.5-1.4
		c-0.1,0-0.2,0-0.2,0l-7.7,1.4c-0.6,0-1.1,0.5-1.2,1l-1.4,4.9l0,0v1.6c0,0.8,0.4,1.6,1.1,2.1h-0.1v2.9c0.2,5.3,4.6,9.4,9.9,9.2
		c4.3-0.1,8-3.1,9-7.3c0.9,1.9,2.4,3.4,4.3,4.3v7.2l-4.8-4.8l-2.2,1.4c-3.8,2.4-8.6,2.4-12.4,0l-2.2-1.4l-7.9,7.9v3
		c0,0.2,0.2,0.4,0.4,0.4c0.1,0,0.2,0,0.3-0.1l7.6-7.6l0.4,0.2c4.7,3,10.7,3,15.3,0l0.5-0.2l7.4,7.4c0.1,0.1,0.4,0.2,0.5,0
		c0.1-0.1,0.1-0.1,0.1-0.2l0,0V31.4l-1-0.3c-2.4-0.8-4.1-3-4.2-5.5c0-1.7,0.8-3.3,2.2-4.4v5.7h9.2v-5.7c1.3,1.1,2.1,2.7,2.2,4.4
		c-0.1,2.6-1.7,4.8-4.2,5.5l-0.9,0.3v9.9l2.2,2.2c0.1,0.1,0.2,0.1,0.3,0.2c0.3,0,0.5-0.2,0.5-0.5v-9.7c3.1-1.4,5.1-4.5,5.1-7.9
		C331.9,21.7,329.5,18.3,325.9,17.1z M310.9,26.9c0,3.8-3.1,6.8-6.8,6.8s-6.8-3.1-6.8-6.8v-1.5c2.2,0.5,4.5,0.8,6.8,0.8
		s4.6-0.3,6.9-0.9v1.6C311,26.9,310.9,26.9,310.9,26.9z M304,24.6c-4.7,0-8.8-0.8-8.8-2.3h5.4v-1.6h-4l0.9-3.2l6.6-1.3l6.3,1.3
		l0.7,3.2h-3.8v1.6h5.1C312.4,23.8,308.7,24.6,304,24.6z"/>
</g>
<g>
	<path d="M449.8,26.1h-16.6L428.9,12h-3.4l-1.7,1.6c-0.1,0.1-0.1,0.3,0,0.4c0.1,0.1,0.1,0.1,0.2,0.1h3.3l4.4,14.1h16.7l1.6-1.6
		c0.1-0.1,0.1-0.3,0-0.4C449.9,26.1,449.9,26.1,449.8,26.1z"/>
	<polygon points="447.8,16.1 447.8,23.7 449.9,23.7 449.9,13.8 431.9,13.8 431.9,16.1 	"/>
	<path d="M446.1,29.3c-2.1,0-3.8,1.7-3.8,3.8s1.7,3.8,3.8,3.8c2.1,0,3.8-1.7,3.8-3.8l0,0C449.8,31.1,448.1,29.3,446.1,29.3z
		 M446.1,34.9c-0.9,0-1.6-0.7-1.6-1.6c0-0.9,0.7-1.6,1.6-1.6s1.6,0.7,1.6,1.6l0,0C447.7,34.1,446.9,34.9,446.1,34.9z"/>
	<path d="M435.8,29.3c-2.1,0-3.8,1.7-3.8,3.8c0,2.1,1.7,3.8,3.8,3.8c2.1,0,3.8-1.7,3.8-3.8l0,0C439.6,31.1,437.8,29.3,435.8,29.3z
		 M435.8,34.9c-0.9,0-1.6-0.7-1.6-1.6c0-0.9,0.7-1.6,1.6-1.6c0.9,0,1.6,0.7,1.6,1.6l0,0C437.4,34.1,436.7,34.9,435.8,34.9z"/>
</g>
<g>
	<path d="M476.7,18.9l-1.5,1.9c-0.2,0.3-0.3,0.7-0.1,1c1,2.5,4.2,6.9,6.7,8.4c0.3,0.2,0.7,0.3,1,0.1l2.2-1.1l0.7,0.7l0.6,0.7h2.2
		c0.2,0,0.3-0.1,0.3-0.3c0-0.1,0-0.1-0.1-0.2l-0.5-0.6l0,0l-2.3-2.3c-0.3-0.3-0.8-0.4-1.2-0.2l-2.3,1.1c-1.5-1.2-4.2-4.7-5-6.6
		l1.6-2.1c0.3-0.3,0.3-0.8,0.1-1.2l-0.8-1.3L476.7,18.9L476.7,18.9z"/>
	<path d="M473.9,12.1l-3.4,1.8c-0.3,0.2-0.5,0.5-0.6,0.8c-1,10,7.7,21,17.7,22.1c0.4,0,0.7-0.1,0.9-0.4l2.4-2.9
		c0.3-0.4,0.3-1-0.1-1.4l-0.8-0.8l-1.4,1.6l0,0l-1.4,1.7c-8.4-1.2-15.8-10.7-15.1-19.1l1.9-1l0.7,1.1l0.1,0.1l0,0l0,0l2.2,0.5
		c0.2,0,0.3-0.1,0.3-0.2c0-0.1,0-0.1,0-0.2l-1.4-2.2l-0.7-1l0,0l0,0l0,0C475,12,474.4,11.9,473.9,12.1z"/>
</g>
</svg>
