<?xml version="1.0" encoding="utf-8"?>
<!-- Generator: Adobe Illustrator 22.0.1, SVG Export Plug-In . SVG Version: 6.00 Build 0)  -->
<svg version="1.1" id="Capa_1" xmlns="http://www.w3.org/2000/svg" xmlns:xlink="http://www.w3.org/1999/xlink" x="0px" y="0px"
	 viewBox="0 0 138.1 25.9" style="enable-background:new 0 0 138.1 25.9;" xml:space="preserve">
<title>logo-prosegur</title>
<path d="M113.5,6.6h2.8v8.1c0,0.9,0.1,1.6,0.3,2c0.3,0.7,1.1,1.1,2.2,1.1c1.1,0,1.9-0.4,2.2-1.1c0.2-0.4,0.3-1.1,0.3-2V6.6h2.8v8.1
	c0,1.4-0.2,2.5-0.7,3.3c-0.8,1.4-2.4,2.1-4.7,2.1c-2.3,0-3.9-0.7-4.7-2.1c-0.4-0.8-0.7-1.9-0.7-3.3L113.5,6.6L113.5,6.6z
	 M108.1,10.8c-0.2-0.9-0.7-1.5-1.5-1.9c-0.5-0.2-1-0.3-1.5-0.3c-1.1,0-2,0.4-2.6,1.2c-0.7,0.8-1,2-1,3.6c0,1.6,0.4,2.8,1.1,3.4
	c0.7,0.7,1.6,1,2.5,1c0.9,0,1.7-0.3,2.3-0.8c0.6-0.5,1-1.2,1.1-2.1h-3.1v-2.2h5.5v7.1H109l-0.3-1.6c-0.5,0.6-1,1.1-1.4,1.3
	c-0.7,0.4-1.6,0.7-2.7,0.7c-1.8,0-3.2-0.6-4.3-1.8c-1.2-1.2-1.8-2.9-1.8-5c0-2.1,0.6-3.9,1.8-5.1c1.2-1.3,2.7-1.9,4.7-1.9
	c1.7,0,3,0.4,4.1,1.3c1,0.8,1.6,1.9,1.8,3.2L108.1,10.8L108.1,10.8z M96.7,9h-7v2.8h6.5v2.3h-6.5v3.4H97v2.4H86.9V6.6h9.7V9z
	 M76.5,15.8c0.1,0.6,0.2,1.1,0.5,1.4c0.5,0.5,1.2,0.8,2.3,0.8c0.7,0,1.2-0.1,1.6-0.2c0.8-0.3,1.2-0.8,1.2-1.5c0-0.4-0.2-0.8-0.6-1
	c-0.4-0.2-1-0.4-1.8-0.6l-1.4-0.3c-1.4-0.3-2.3-0.6-2.9-1c-0.9-0.6-1.3-1.6-1.3-2.9c0-1.2,0.4-2.2,1.3-2.9c0.9-0.8,2.1-1.2,3.8-1.2
	c1.4,0,2.6,0.4,3.6,1.1c1,0.7,1.5,1.8,1.6,3.2h-2.7c0-0.8-0.4-1.4-1-1.7c-0.4-0.2-1-0.3-1.6-0.3c-0.7,0-1.3,0.1-1.7,0.4
	c-0.4,0.3-0.6,0.7-0.6,1.2c0,0.5,0.2,0.8,0.6,1.1c0.3,0.2,0.8,0.3,1.7,0.5l2.3,0.5c1,0.2,1.8,0.6,2.3,1c0.8,0.6,1.2,1.5,1.2,2.7
	c0,1.2-0.5,2.2-1.4,3c-0.9,0.8-2.2,1.2-3.9,1.2c-1.7,0-3.1-0.4-4.1-1.2c-1-0.8-1.5-1.9-1.5-3.2L76.5,15.8L76.5,15.8z M70.4,18.7
	c-1,1-2.5,1.5-4.4,1.5c-1.9,0-3.4-0.5-4.4-1.5c-1.3-1.3-2-3.1-2-5.4c0-2.4,0.7-4.2,2-5.4c1-1,2.5-1.5,4.4-1.5c1.9,0,3.4,0.5,4.4,1.5
	c1.3,1.2,2,3,2,5.4C72.4,15.6,71.7,17.4,70.4,18.7z M68.7,16.7c0.6-0.8,1-2,1-3.4c0-1.5-0.3-2.6-1-3.4C68,9,67.1,8.6,66,8.6
	c-1.1,0-2,0.4-2.6,1.2c-0.7,0.8-1,2-1,3.4c0,1.5,0.3,2.6,1,3.4c0.7,0.8,1.5,1.2,2.6,1.2C67.1,17.9,68,17.5,68.7,16.7z M55.6,7
	c0.5,0.2,0.9,0.5,1.3,0.9c0.3,0.3,0.5,0.7,0.7,1.1c0.2,0.4,0.3,0.9,0.3,1.4c0,0.6-0.2,1.2-0.5,1.9c-0.3,0.6-0.8,1-1.6,1.3
	c0.6,0.2,1,0.6,1.3,1c0.3,0.4,0.4,1.1,0.4,2.1v0.9c0,0.6,0,1,0.1,1.2c0.1,0.3,0.2,0.6,0.5,0.8v0.3h-3.1c-0.1-0.3-0.1-0.5-0.2-0.7
	c-0.1-0.4-0.1-0.8-0.1-1.1l0-1.2c0-0.8-0.2-1.4-0.5-1.7c-0.3-0.3-0.9-0.4-1.7-0.4h-2.9v5.2h-2.7V6.6h6.5C54.3,6.7,55.1,6.8,55.6,7z
	 M49.6,8.9v3.5h3.1c0.6,0,1.1-0.1,1.4-0.2c0.6-0.3,0.8-0.7,0.8-1.5c0-0.8-0.3-1.3-0.8-1.6c-0.3-0.2-0.8-0.2-1.4-0.2L49.6,8.9z
	 M43.6,14.1c-0.8,0.6-1.9,1-3.4,1h-2.8v4.7h-2.8V6.6h5.8c1.3,0,2.4,0.3,3.2,1c0.8,0.7,1.2,1.7,1.2,3.2
	C44.7,12.4,44.3,13.5,43.6,14.1z M41.4,9.4c-0.4-0.3-0.9-0.4-1.5-0.4h-2.6v3.9h2.6c0.7,0,1.2-0.2,1.5-0.5c0.4-0.3,0.5-0.8,0.5-1.5
	C42,10.1,41.8,9.7,41.4,9.4L41.4,9.4z M135.6,7c0.5,0.2,0.9,0.5,1.3,0.9c0.3,0.3,0.5,0.7,0.7,1.1c0.2,0.4,0.3,0.9,0.3,1.4
	c0,0.6-0.2,1.2-0.5,1.9c-0.3,0.6-0.8,1-1.6,1.3c0.6,0.2,1,0.6,1.3,1c0.3,0.4,0.4,1.1,0.4,2.1v0.9c0,0.6,0,1,0.1,1.2
	c0.1,0.3,0.2,0.6,0.5,0.8v0.3h-3.1c-0.1-0.3-0.1-0.5-0.2-0.7c-0.1-0.4-0.1-0.8-0.1-1.1l0-1.2c0-0.8-0.2-1.4-0.5-1.7
	c-0.3-0.3-0.9-0.4-1.7-0.4h-2.9v5.2h-2.7V6.6h6.5C134.4,6.7,135.1,6.8,135.6,7L135.6,7z M129.6,8.9v3.5h3.1c0.6,0,1.1-0.1,1.4-0.2
	c0.6-0.3,0.8-0.7,0.8-1.5c0-0.8-0.3-1.3-0.8-1.6c-0.3-0.2-0.8-0.2-1.4-0.2L129.6,8.9L129.6,8.9z M15,5.9l-4.3,2l2,4.2l5.1-2.4
	C17.1,8.3,16.1,7,15,5.9z M15.1,5.2l3.8-1.8c-2.4-1.6-5.4-2.1-8.4-1.3C11.6,2.6,13.4,3.5,15.1,5.2z M10.5,7.3l4.1-1.9
	c-1.3-1.2-2.8-2.2-4.4-2.9C10,2.5,9.8,2.4,9.6,2.3C9.2,2.5,8.8,2.6,8.4,2.8L10.5,7.3z M19.8,16.5l-4.1,1.9l2.2,4.6
	c0.5-0.2,0.9-0.5,1.3-0.7c0-0.1,0.1-0.3,0.1-0.4C19.7,20.1,19.9,18.3,19.8,16.5L19.8,16.5z M24,14.5l-3.7,1.7
	c0.2,2.4-0.1,4.3-0.5,5.5C22.2,19.9,23.6,17.3,24,14.5z M20.3,15.6l3.8-1.8c0.1-1.7-0.1-3.3-0.7-4.9l-4.3,2
	C19.7,12.4,20.1,14,20.3,15.6L20.3,15.6z M15.4,17.8l4.3-2c-0.2-1.6-0.6-3.2-1.2-4.7l-5.1,2.4L15.4,17.8z M5.5,9.7
	C5.3,7.8,5.5,6,6,4.2C3.8,6,2.3,8.5,1.9,11.3L5.5,9.7z M6.7,14.8c-0.6-1.5-1-3-1.1-4.5L1.8,12c-0.1,1.6,0.1,3.2,0.6,4.8L6.7,14.8z
	 M10.2,20.3c-1.1-1.2-2.1-2.5-2.8-3.9l-4.2,2L1.5,19c-0.1-0.2-0.2-0.4-0.3-0.6C-1.8,12,1,4.3,7.5,1.3C13.1-1.3,19.4,0.1,23,4.8
	l-1.6,0.8c-0.5-0.7-1.2-1.3-1.9-1.8l-3.9,1.8c1.1,1.1,2,2.4,2.8,3.8l5.4-2.5l0.6-0.2c0.2,0.3,0.3,0.6,0.4,0.8
	c3,6.4,0.2,14.1-6.3,17.1c-5.7,2.6-11.9,1.3-15.5-3.5l1.6-0.8c0.5,0.7,1.1,1.2,1.8,1.8C6.3,22.1,10.2,20.3,10.2,20.3z M15.2,23.9
	c-1.7-0.8-3.2-1.9-4.6-3.2l-3.8,1.7C9.2,24.1,12.2,24.6,15.2,23.9z M11.2,20.4c1.3,1.2,2.8,2.3,4.5,3c0.2,0.1,0.3,0.1,0.4,0.2
	c0.4-0.1,0.8-0.3,1.2-0.4l-2.2-4.6L11.2,20.4L11.2,20.4z M7.9,16.1c0.8,1.4,1.7,2.8,2.8,3.9l4.1-1.9l-2-4.3L7.9,16.1z M6.1,10
	c0.2,1.6,0.5,3.1,1.1,4.6l4.9-2.3l-2-4.2L6.1,10L6.1,10z M6.8,3.7C6.8,3.8,6.7,4,6.6,4.2C6.1,5.9,6,7.6,6,9.4l3.9-1.8L7.8,3.1
	C7.5,3.3,7.2,3.4,6.8,3.7z"/>
</svg>
