<?xml version="1.0" encoding="utf-8"?>
<!-- Generator: Adobe Illustrator 22.0.1, SVG Export Plug-In . SVG Version: 6.00 Build 0)  -->
<svg version="1.1" id="Capa_1" xmlns="http://www.w3.org/2000/svg" xmlns:xlink="http://www.w3.org/1999/xlink" x="0px" y="0px"
	 viewBox="0 0 75 60" style="enable-background:new 0 0 75 60;" xml:space="preserve">
<style type="text/css">
	.st0{display:none;}
	.st1{display:inline;fill:#010202;}
	.st2{display:inline;}
</style>
<g class="st0">
	<path class="st1" d="M15.5,50.9h-4.7v3.4L9.1,56l-1.7-1.7l0,0v-3.3h3.4V44c0-0.3-0.2-0.5-0.5-0.5c-0.1,0-0.2,0.1-0.3,0.1l-2.6,2.5
		v4.7H0.4c-0.3,0-0.5,0.2-0.4,0.5c0,0.1,0.1,0.2,0.1,0.3l2.5,2.6h4.7l-4.9,5c-0.2,0.2-0.2,0.5,0,0.7C2.6,59.9,2.7,60,2.8,60h3.6
		l2.7-2.8l2.7,2.8h3.6c0.3,0,0.5-0.2,0.4-0.5c0-0.1-0.1-0.2-0.1-0.3l-4.9-5h6.9c0.3,0,0.5-0.2,0.4-0.5c0-0.1-0.1-0.2-0.1-0.3
		L15.5,50.9z"/>
	<path class="st1" d="M34.3,50.9h-4.7v3.4L27.9,56l-1.7-1.7l0,0v-3.3h3.4V44c0-0.3-0.2-0.5-0.5-0.5c-0.1,0-0.2,0.1-0.3,0.1l-2.6,2.5
		v4.7h-6.9c-0.3,0-0.5,0.2-0.4,0.5c0,0.1,0.1,0.2,0.1,0.3l2.5,2.6h4.7l-4.9,5c-0.2,0.2-0.2,0.5,0,0.7c0.1,0.1,0.2,0.1,0.3,0.1h3.6
		l2.7-2.8l2.7,2.8h3.5c0.3,0,0.5-0.2,0.5-0.5c0-0.1,0-0.2-0.1-0.3l-4.9-5h6.9c0.3,0,0.5-0.2,0.5-0.5c0-0.1-0.1-0.2-0.1-0.3
		L34.3,50.9z"/>
	<path class="st1" d="M53.1,50.9h-4.7v3.4L46.7,56L45,54.2l0,0v-3.3h3.4V44c0-0.3-0.2-0.5-0.5-0.5c-0.1,0-0.2,0.1-0.3,0.1L45,46.2
		v4.7H38c-0.3,0-0.5,0.2-0.5,0.5c0,0.1,0.1,0.2,0.1,0.3l2.5,2.6H45l-4.9,5c-0.2,0.2-0.2,0.5,0,0.7c0.1,0.1,0.2,0.1,0.3,0.1H44
		l2.7-2.8l2.7,2.8H53c0.3,0,0.5-0.2,0.4-0.5c0-0.1-0.1-0.2-0.1-0.3l-4.9-5h6.8c0.3,0,0.5-0.2,0.4-0.5c0-0.1-0.1-0.2-0.1-0.3
		L53.1,50.9z"/>
	<path class="st1" d="M74.4,53.5l-2.5-2.6h-4.7v3.4L65.5,56l-1.7-1.7l0,0v-3.3h3.4V44c0-0.3-0.2-0.5-0.5-0.5c-0.1,0-0.2,0.1-0.3,0.1
		l-2.6,2.5v4.7h-6.9c-0.3,0-0.5,0.2-0.4,0.5c0,0.1,0.1,0.2,0.1,0.3l2.5,2.6h4.7l-4.9,5c-0.2,0.2-0.2,0.5,0,0.7
		c0.1,0.1,0.2,0.1,0.3,0.1h3.6l2.7-2.8l2.7,2.8h3.6c0.3,0,0.5-0.2,0.5-0.5c0-0.1,0-0.2-0.1-0.3l-4.8-4.9h6.9c0.3,0,0.4-0.3,0.4-0.5
		C74.5,53.6,74.5,53.5,74.4,53.5z"/>
	<path class="st1" d="M35.3,47.4c1.4,1.4,3.6,1.4,5,0c0,0,0,0,0,0l6.8-6.8c1.4-1.4,1.5-3.6,0.3-5.1l2.1-2.1c2.3-2.3,1.9-6.2-0.8-8.8
		c-2.4-2.4-5.9-2.9-8.2-1.3L37.9,26l-0.8-0.2c-1.4-0.8-3.1-0.5-4.2,0.6L26,33.2c-1.4,1.4-1.4,3.7,0,5.1c0,0,0,0,0,0L35.3,47.4z
		 M42.4,26.3c0.8-0.9,2.7-0.6,4,0.8s1.6,3.2,0.8,4L45,33.2l-4.8-4.8L42.4,26.3z M28.5,35.5l6.8-6.8c0.1-0.1,0.2-0.1,0.3,0l9.2,9.2
		c0.1,0.1,0.1,0.2,0,0.3L38,44.9c-0.1,0.1-0.2,0.1-0.3,0l-9.2-9.2C28.4,35.7,28.4,35.6,28.5,35.5z"/>
	<rect x="35" y="35" transform="matrix(0.7071 -0.7071 0.7071 0.7071 -15.1902 36.7262)" class="st1" width="3.5" height="3.4"/>
</g>
<g class="st0">
	<path class="st2" d="M7,57.4c-2.3,0.1-4.3-1.6-4.4-3.9c-0.1-1.1,0.3-2.2,1-3l0,0l0.3-0.3c1.5-1.4,3.7-1.5,5.3-0.3l3.4,0.1
		c-0.4-0.7-0.8-1.2-1.4-1.7c-1.3-1.2-3.1-1.8-4.9-1.7l-0.4,0.1c-1.6,0.2-3.1,1-4.1,2.2l0,0c-2.4,2.8-2.2,7,0.6,9.5l0,0
		c2.8,2.5,7.1,2.2,9.5-0.6l0,0c0.3-0.3,0.5-0.6,0.7-0.9l-3.4-0.1C8.5,57.2,7.7,57.4,7,57.4z"/>
	<path class="st2" d="M7,50.6L7,50.6c-1.5,0-2.7,1.2-2.7,2.7C4.3,54.8,5.5,56,7,56l0,0c0.6,0,1.2-0.2,1.7-0.6h4.9l0.4-1.4H9.6
		c0.1-0.2,0.1-0.5,0.1-0.7c0-0.2,0-0.3,0-0.5h4.5l0.4-1.4H8.9C8.4,50.9,7.7,50.6,7,50.6z M7.9,54.2c-0.2,0.2-0.6,0.4-0.9,0.4l0,0
		c-0.7,0-1.3-0.6-1.3-1.3C5.7,52.6,6.3,52,7,52c0,0,0,0,0,0l0,0c0.7,0,1.3,0.6,1.3,1.3C8.3,53.6,8.2,54,7.9,54.2z"/>
	<path class="st2" d="M16.6,45.5L16.6,45.5L16.6,45.5z"/>
	<path class="st2" d="M17.4,23c0.3,0.3,0.7,0.5,1.2,0.6l5.3,1.6c0.3,0.1,0.6,0.1,0.9,0.1c0.7,0,1.5-0.4,2-1.9l0,0V22
		c0-0.1-0.1-0.2-0.2-0.2c0,0-0.1,0-0.1,0.1L25.2,23l-0.5-0.2l-5.4-1.6c-0.2-0.1-0.4-0.3-0.4-0.5v-0.8c-0.1-2.1,1.6-3.8,3.6-3.8
		c0.6,0,1.3,0.1,1.8,0.4l1.8,1l0.4,0.1l-1.8,1.7v1.5c0,0.1,0.1,0.2,0.2,0.2c0,0,0.1,0,0.1-0.1l3-3c0.5-0.4,0.9-1.1,0.7-1.6
		c-0.1-0.3-0.3-0.5-0.5-0.6l-2.6-1.5c-3-1.7-6.8-0.7-8.6,2.3c-0.6,1-0.9,2.1-0.8,3.3v0.8C16.3,21.6,16.7,22.4,17.4,23z"/>
	<path class="st2" d="M31.7,37.4h-2.8l-2.1,2.2l1.9,1.9L32,38c0.1-0.1,0.1-0.4,0-0.5C31.9,37.4,31.8,37.4,31.7,37.4z"/>
	<path class="st2" d="M31.2,42.4c0,0.1,0.1,0.2,0.2,0.2c0.1,0,0.1,0,0.1-0.1l3.3-3.4l-0.9-0.9l-2.7,2.7V42.4z"/>
	<path class="st2" d="M41.6,46.6L41.6,46.6c-0.4,0-0.8,0-1.1,0.1l2.2,2.6c2.2,0.6,3.6,2.8,3,5.1c-0.5,1.9-2.2,3.2-4.1,3.2h-0.4
		c-2-0.2-3.6-1.8-3.7-3.8l-2.2-2.7c-0.3,0.7-0.4,1.4-0.4,2.2c0,1.8,0.7,3.5,2,4.8l0.3,0.3c1.2,1.1,2.8,1.6,4.4,1.6h0.1
		c3.7,0,6.7-3,6.7-6.7l0,0C48.3,49.6,45.3,46.6,41.6,46.6z"/>
	<path class="st2" d="M24.5,40.5L24.5,40.5l-2.4,0.8c0,0.1,0,0.1,0.1,0.2c0.5,0.6,0.7,1.5,0.5,2.3l-0.7,2.7l0,0L20,53.6
		c-0.2,0.5-0.7,0.4-1,0.4l-0.2,0c-0.2,0-0.4-0.1-0.5-0.2c-0.1-0.1-0.2-0.3-0.1-0.5l1.9-8.1c0.2-1.1-0.1-2.3-1-3.1
		c-0.3-0.3-0.7-0.6-1-0.9l-2.1-1.5c-1-0.7-1-0.6-1-0.9l0.5-1.7l2.7-7.7c0-0.2,0.1-0.3,0.2-0.4c0.1-0.1,0.3-0.2,0.4-0.1l2.4,0.4
		c0,0,0.1,0,0.1,0.1l0.4,0.3l6.4,6.7c0.1,0.1,0.4,0.1,0.5,0c0.1-0.1,0.1-0.2,0.1-0.3V33l-5.9-6.2l0,0c-0.2-0.1-0.4-0.2-0.7-0.3
		l-2.9-0.4c-0.9-0.2-1.9,0.1-2.6,0.7c-0.7,0.6-0.9,1.3-1.2,2.5l-2.6,7.9l0,0l-8.7-0.6c-0.7,0-1.3,0.6-1.4,1.3c0,0.4,0.2,0.7,0.4,1
		l10.1,9.4l0.4,0.4l0.2,0.2l0.6-3.2l-7-6.5l4.8,0.5c0.2,0.8,0.8,1.5,1.5,1.9l0,0c0.2,0.1,0.3,0.2,0.5,0.3l2.8,1.8
		c0.2,0.1,0.4,0.3,0.4,0.6l0,0v0.1l-0.1,0.3l-1.6,7.4l0,0l-0.1,0.3c-0.2,1,0,2,0.7,2.8l0.4,0.3c0.7,0.5,1.5,0.9,2.4,0.9l0,0
		c0.7,0,1.4-0.2,1.9-0.6c0.6-0.4,1-0.9,1.2-1.6l2.9-9.9C25.7,43.2,25.4,41.7,24.5,40.5z"/>
	<path class="st2" d="M39.3,51.5L37,48.9c-0.3,0.3-0.6,0.7-0.9,1.1l2.6,2.9c0,0.7,0.2,1.4,0.7,2l0,0c1,1.1,2.7,1.2,3.8,0.2
		c1.1-1,1.2-2.7,0.2-3.8c-0.4-0.5-1-0.8-1.6-0.9l-2.7-3.1c-0.4,0.2-0.9,0.4-1.3,0.7l2.3,2.6c-0.2,0.1-0.4,0.2-0.6,0.4
		C39.5,51.2,39.4,51.4,39.3,51.5z M40.6,52.2c0.5-0.5,1.4-0.4,1.8,0.1c0.2,0.3,0.4,0.6,0.3,0.9c0,0.3-0.2,0.7-0.4,0.9
		c-0.5,0.5-1.4,0.4-1.8-0.1C40,53.4,40.1,52.6,40.6,52.2z"/>
	<path class="st2" d="M39.1,45.8c1-0.4,2.1-0.7,3.2-0.9c0.7-0.1,1-0.7,1.2-1.3c0.3-1-0.2-2-1-3l0,0l-0.1-0.1
		c-0.1-0.1-0.2-0.2-0.3-0.3L33.2,31h-2.8c-0.2,0-0.4,0.2-0.4,0.4c0,0.1,0,0.2,0.1,0.2l10.4,10.8c0,0,0,0.1,0,0.1
		c-2.2,0.5-4.2,1.5-6,2.8l-0.1,0.1c-2.8,2.8-4,6-3.5,9.5h-6l-0.8,2.7h8.5c0.4,0,0.8-0.2,1.1-0.5c0.3-0.3,0.3-0.8,0.2-1.2
		c-0.7-2.1-0.4-4.4,0.7-6.4C35.6,47.8,37.2,46.4,39.1,45.8z"/>
</g>
<g>
	<rect x="11.6" y="54.9" width="1.3" height="1.3"/>
	<rect x="5.2" y="25.5" width="1.3" height="1.3"/>
	<rect x="10.3" y="25.5" width="3.9" height="1.3"/>
	<path d="M24.3,28.1H2.7v-3.7h21.4c0.2,0,0.4-0.2,0.4-0.4c0-0.1,0-0.2-0.1-0.3l-2.1-2.1H-0.1v30.8l0,0v1.2h21.7v3.7H0.2
		c-0.2,0-0.4,0.2-0.4,0.4c0,0.1,0,0.2,0.1,0.3l2.1,2.1h22.3V29.4l0,0L24.3,28.1z M21.6,52.4H2.7l-0.1-23h19V52.4z"/>
	<path d="M15.2,41.8l-2.9,2.9l-2.9-2.9c-0.1-0.1-0.2-0.1-0.2,0c0,0-0.1,0.1-0.1,0.1v1.4l2.3,2.3c0.5,0.5,1.3,0.5,1.8,0c0,0,0,0,0,0
		l2.3-2.3v-1.4c0-0.1-0.1-0.2-0.2-0.2C15.2,41.8,15.2,41.8,15.2,41.8z"/>
	<polygon points="9.1,36.6 12.3,35.9 14.6,36.4 12.3,39.4 11.3,37.9 10.3,38.6 12.2,41.6 15.5,37.4 15.5,41 16.7,41 16.7,35.6 
		12.3,34.6 7.8,35.6 7.8,41 9.1,41 	"/>
</g>
<g class="st0">
	<path class="st2" d="M31.5,30.6L29.9,30v6.2h-2.7V30l-1.7,0.6c-3,1-5,3.8-5,6.9c0,2.8,1.7,5.4,4.3,6.6v13.5H0.4
		c-0.2,0-0.4,0.1-0.4,0.3c0,0.1,0,0.2,0.1,0.3L2,60h25.1V42.4l-0.8-0.3c-2-0.6-3.4-2.5-3.5-4.6c0-1.4,0.7-2.8,1.8-3.7v4.7h7.6v-4.7
		c1.1,0.9,1.8,2.2,1.8,3.7c0,2.1-1.4,4-3.5,4.6l-0.7,0.3v13.3l1.8,1.8c0.1,0.1,0.2,0.1,0.3,0.1c0.2,0,0.4-0.2,0.4-0.4V44.1
		c2.6-1.2,4.2-3.7,4.3-6.6C36.5,34.3,34.5,31.6,31.5,30.6z"/>
	<path class="st2" d="M2.5,28.6h24.5c0.2,0,0.4-0.1,0.4-0.3c0-0.1,0-0.2-0.1-0.3l-1.9-1.9H0l-0.1,27h2.5L2.5,28.6z"/>
	<rect x="12.3" y="51.8" class="st2" width="2.5" height="2.5"/>
</g>
<g class="st0">
	<path class="st2" d="M5.4,30.6L5.4,30.6v3.7C5.3,39,9.1,42.9,13.8,43c0.1,0,0.3,0,0.4,0c4.7,0.1,8.6-3.6,8.7-8.3c0-0.1,0-0.3,0-0.4
		v-3.7l0,0v-0.6l0,0v-1l2.6-3.3l-1-0.6c-0.7-0.5-7.2-4.8-10.3-4.8s-9.7,4.3-10.4,4.8l-1,0.6l2.7,3.4L5.4,30.6z M20.7,34.3
		c0.1,3.5-2.7,6.4-6.2,6.5c-0.1,0-0.2,0-0.3,0c-3.5,0.1-6.4-2.6-6.6-6.1c0-0.1,0-0.3,0-0.4v-2c4,2.4,9.1,2.4,13.1,0L20.7,34.3z
		 M14.2,31.9c-2.4,0-4.7-0.8-6.5-2.3v-0.8h13.1v0.7C18.9,31.1,16.5,31.9,14.2,31.9z M14.2,22.3c1.7,0,5.5,2.1,8.2,3.7L21,27.8H7.3
		L6,26C8.6,24.4,12.5,22.3,14.2,22.3L14.2,22.3z"/>
	<path class="st2" d="M12.6,26.6h1.6l0,0l1.7-1.7c0,0,0.1-0.1,0.1-0.2c0-0.1-0.1-0.2-0.2-0.2l0,0h-1.6l0,0l-1.7,1.7
		c0,0-0.1,0.1-0.1,0.2C12.3,26.5,12.4,26.6,12.6,26.6z"/>
	<path class="st2" d="M6.4,46.5H5.3l-0.4,0.4l0,0l-1.2,1.2l0,0l-0.5,0.5l-0.3,0.3l0,0l-0.6,0.6c-0.1,0.1-0.1,0.2,0,0.2
		c0,0,0.1,0,0.1,0h1.2l0.1-0.1l0,0l1.5-1.5l0,0l1.4-1.4c0.1-0.1,0.1-0.1,0-0.2C6.5,46.5,6.5,46.5,6.4,46.5z"/>
	<rect x="30.3" y="40.6" class="st2" width="3.8" height="1.1"/>
	<rect x="25.5" y="40.6" class="st2" width="3.8" height="1.1"/>
	<path class="st2" d="M35.4,59.4c0,0.4,0.3,0.6,0.6,0.6h3c0.4,0,0.6-0.3,0.6-0.6v-1.5h-4.3V59.4z"/>
	<path class="st2" d="M37.2,52.3c0-0.7-0.6-1.3-1.3-1.3c-0.7,0-1.3,0.6-1.3,1.3c0,0.7,0.6,1.3,1.3,1.3C36.6,53.6,37.2,53,37.2,52.3z
		"/>
	<path class="st2" d="M20.4,59.4c0,0.4,0.3,0.6,0.6,0.6h3c0.4,0,0.6-0.3,0.6-0.6v-1.5h-4.3V59.4z"/>
	<path class="st2" d="M42.1,54.5H17.9c-0.2,0-0.3,0.1-0.3,0.3c0,0.1,0,0.1,0.1,0.2l1.6,1.6h21.4l1.6-1.6c0.1-0.1,0.1-0.3,0-0.4
		C42.2,54.5,42.2,54.5,42.1,54.5z"/>
	<path class="st2" d="M25.3,52.3c0-0.7-0.6-1.3-1.3-1.3c-0.7,0-1.3,0.6-1.3,1.3c0,0.7,0.6,1.3,1.3,1.3c0,0,0,0,0,0
		C24.8,53.6,25.3,53,25.3,52.3z"/>
	<path class="st2" d="M42.2,50.8l-1.9-2.3c-0.2-0.3-0.5-0.4-0.8-0.4h-0.4l-2.6-4.8c-0.2-0.3-0.5-0.6-0.9-0.6H24.4
		c-0.1,0-0.3,0-0.4,0.1l-0.4-0.4c-0.4-0.4-1.1-0.4-1.5,0c-4.6,3.9-11.3,3.9-15.9,0c-0.4-0.4-1.1-0.4-1.5,0l-3.9,3.9l0,0L0,47.1v2.2
		c0,0.1,0,0.2,0.1,0.2c0.1,0.1,0.4,0.1,0.5,0l1.2-1.2l0,0l3.6-3.6c2.2,1.6,4.8,2.6,7.6,2.8v2.2h2.2v-2.2c2.7-0.2,5.3-1.2,7.5-2.8
		L21,48.1h-0.4c-0.3,0-0.6,0.1-0.8,0.4l-1.9,2.3c-0.1,0.2-0.2,0.4-0.2,0.7v2.1h2.2v-1.7l1.3-1.5h17.9l1.3,1.5v1.7h2.2v-2.1
		C42.4,51.2,42.3,51,42.2,50.8z M23.6,48.1L23.6,48.1l1.5-3.2H35l1.4,3.2l0.1,0H23.6z"/>
</g>
<g class="st0">
	<path class="st2" d="M36.8,38.9H34v8.3h-0.5l-1.4-3.9c-0.3-0.8-1.1-1.2-1.9-0.9c-0.4,0.1-0.7,0.5-0.9,0.9l-2.2,6.1l-1.8-3.1
		c-0.2-0.4-0.7-0.7-1.1-0.7c-0.5-0.1-0.9,0.1-1.2,0.5l-1,1.1h-2.6l-1.4-3.9c-0.3-0.8-1.1-1.2-1.9-0.9c-0.4,0.1-0.7,0.5-0.9,0.9
		l-2.2,6.1l-1.8-3.1c-0.2-0.4-0.6-0.7-1.1-0.7c-0.5-0.1-0.9,0.1-1.2,0.5l-1,1.1H7.1V36.1h29.2c0.3,0,0.5-0.2,0.5-0.5
		c0-0.1,0-0.2-0.1-0.3l-2-2H4.3v14H0v2.8h4.2v4.3h2.8v-4.3h1.4c0.4,0,0.8-0.2,1.1-0.5l0.1-0.1l2.3,4.1c0.3,0.5,0.7,0.7,1.3,0.7h0.1
		c0.6,0,1.1-0.4,1.3-1l1.9-5.3l0.4,1.1c0.2,0.6,0.8,1,1.4,1h4.3c0.4,0,0.8-0.2,1.1-0.5l0.1-0.1l2.3,4.1c0.3,0.5,0.7,0.7,1.3,0.7h0.1
		c0.6,0,1.1-0.4,1.3-1l1.9-5.3l0.4,1.1c0.2,0.6,0.8,1,1.4,1H34v7.1H4.8c-0.3,0-0.5,0.2-0.5,0.5l0,0c0,0.1,0.1,0.2,0.1,0.3l2,2h30.3
		v-10h3v-2.8h-3V38.9z"/>
	<path class="st2" d="M36.8,29h-1.9c-0.2,0-0.4,0.2-0.4,0.4c0,0.1,0,0.2,0.1,0.3l2.2,2.1l0,0c1.6,0,2.8,1.3,2.8,2.9l0,0l2.1,2.2
		c0.1,0.2,0.4,0.2,0.5,0c0.1-0.1,0.1-0.2,0.1-0.3v-1.9l0,0C42.4,31.6,39.9,29,36.8,29z"/>
	<path class="st2" d="M36.7,23.5h-1.9c-0.2,0-0.4,0.2-0.4,0.4c0,0.1,0,0.2,0.1,0.3l2.1,2.1l0,0c4.6,0,8.4,3.7,8.4,8.4c0,0,0,0,0,0
		l0,0l2.1,2.2c0.1,0.2,0.4,0.2,0.5,0c0.1-0.1,0.1-0.2,0.1-0.3v-1.8l0,0C47.9,28.5,42.9,23.5,36.7,23.5z"/>
	<rect x="26.9" y="38.8" class="st2" width="2.8" height="1.5"/>
</g>
</svg>
